<?xml version="1.0" standalone="no"?>
<!DOCTYPE svg PUBLIC "-//W3C//DTD SVG 20010904//EN"
 "http://www.w3.org/TR/2001/REC-SVG-20010904/DTD/svg10.dtd">
<svg version="1.0" xmlns="http://www.w3.org/2000/svg"
 width="680.000000pt" height="680.000000pt" viewBox="0 0 680.000000 680.000000"
 preserveAspectRatio="xMidYMid meet">
<metadata>
Created by potrace 1.14, written by Peter Selinger 2001-2017
</metadata>
<g transform="translate(0.000000,680.000000) scale(0.100000,-0.100000)"
fill="#000000" stroke="none">
<path d="M1429 6688 c0 -15 0 -6485 1 -6543 l0 -40 1931 1 c1062 1 1932 4
1934 6 3 2 -7 47 -21 99 -14 52 -27 99 -28 104 -11 42 -22 84 -48 180 -16 61
-31 117 -33 125 -2 8 -14 51 -25 95 -12 44 -23 85 -24 90 -2 6 -8 30 -15 55
-7 25 -15 56 -18 69 -2 14 -6 28 -9 33 -3 4 -7 17 -9 27 -4 23 -33 133 -47
179 l-10 32 -1049 0 c-992 0 -1049 1 -1050 18 0 27 -1 1622 0 1663 l1 36 860
-1 860 -1 0 546 0 547 -856 0 c-470 0 -858 2 -861 5 -4 4 -7 1351 -4 1555 l1
42 1049 0 1050 0 15 53 c23 80 67 245 71 265 2 14 58 222 126 472 7 25 13 50
15 55 9 37 56 213 60 228 5 16 -91 17 -1930 17 -1542 0 -1936 -3 -1937 -12z"/>
</g>
</svg>
