<svg xmlns="http://www.w3.org/2000/svg" xmlns:xlink="http://www.w3.org/1999/xlink" viewBox="0 0 120 128"><defs><path id="a" d="M0 0h35.978v47.402H0z"/><path id="c" d="M0 0h36.09v46.841H0z"/><path id="e" d="M0 0h11.187v11.712H0z"/><path id="g" d="M0 0h11.187v11.712H0z"/></defs><g fill="none" fill-rule="evenodd"><path d="M59.475 0c-2.848 1.527-4.019 3.758-4.139 6.59-.03.698-.469.586-.898.553-.71-.054-.812-.507-.781-1.116C53.814 2.973 55.927.65 59.475 0M32.27 68.053c-2.015 5.411-2.773 10.95-2.135 16.684-1.4-3.156-1.77-6.486-1.614-10.27l-10.769 8.067c-.074-.093-.148-.185-.223-.275 4.779-4.85 9.585-9.675 14.74-14.206M61.47 61.756c-.189 3.43-.167 6.843.636 10.202.748 3.136 1.842 6.12 3.955 8.612 3.498 4.126 8.12 3.954 11.31-.407 1.297-1.776 2.18-3.76 2.701-5.894 1.281-5.232 1.266-10.46-.278-15.632-1.351-4.528-3.835-7.995-9.239-8.92 2.776-.878 5.01-.658 7.082.81 1.958 1.388 3.229 3.341 4.058 5.532 2.736 7.214 2.661 14.475.085 21.716-.521 1.465-1.364 2.775-2.4 3.943-4.551 5.134-11.67 4.595-15.295-1.225-2.81-4.512-3.657-9.516-3.3-14.762.09-1.341.203-2.684.686-3.975" fill="#292D35"/><path d="M68.49 63.575c-.327.488.001.937.11 1.385.138.574.155 1.114-.464 1.346-.708.266-1.11-.24-1.295-.814-.497-1.55-.93-3.122-1.517-4.68-.415 1.348-.457 2.73-.428 4.106.067 3.313.617 6.545 1.779 9.655.285.766.611 1.532 1.025 2.234.974 1.653 2.07 3.237 4.243 3.294 2.212.055 3.292-1.544 4.277-3.194.465-.775.86-1.592 1.367-2.35-.477 2.093-1.267 4.039-2.813 5.575-1.615 1.605-3.545 1.851-5.558.764-1.534-.828-2.67-2.069-3.435-3.62-3.04-6.157-3.62-12.568-1.785-19.18.232-.843.232-1.572-.02-2.383a528.306 528.306 0 01-2.246-7.497c-.532-1.81-.188-2.263 1.707-2.295a41.975 41.975 0 012.022.01c1.77.053 2.874 1.126 2.969 2.87.047.87-.91.733-1.186 1.256-.445-.14-.427-.518-.534-.815-.42-1.164-1.54-1.684-2.68-1.298-.434.146-.332.386-.251.663 1.446 4.862 2.891 9.725 4.35 14.584.05.161.258.276.392.411l-.03-.027zM34.282 69.34c-.614 3.614-1.048 7.246-.94 10.944.088 2.977.473 5.88 1.595 8.61.492 1.195 1.126 2.285 1.977 3.196 2.445 2.61 5.287 2.37 7.293-.672 1.913-2.9 2.576-6.29 2.823-9.809.081-1.156.146-2.336.037-3.481-.138-1.417.788-1.344 1.47-1.422.927-.105.5.836.516 1.268.133 3.855-.253 7.637-1.488 11.268-.497 1.459-1.213 2.776-2.172 3.91-2.878 3.412-6.988 3.247-9.63-.407-2.008-2.778-2.707-6.108-3.003-9.574-.401-4.73-.055-9.365 1.522-13.83M49.632 9.904c-7.454 2.92-11.904 8.442-15.027 15.34-1.03 2.278-.81 4.17.715 6.033.454.554.855 1.153 1.35 1.83-.239-.015-.405.029-.473-.035-1.717-1.609-3.015-.581-4.403.596-3.528 2.991-7.115 5.913-10.871 8.713.785-.974 1.551-1.966 2.36-2.918 2.504-2.946 5.172-5.737 7.935-8.436.668-.651 1.187-1.195.495-2.169-.372-.52-.359-1.203-.12-1.82 3.063-7.88 8.103-13.86 16.157-16.915.515-.196 1.076-.452 1.882-.219M60.29 49.617c.732 1.731.804 3.065.366 4.541-1.443 4.857-2.762 9.75-4.12 14.597.132.112.212.225.27.215.785-.133 1.718-.649 2.283.156.55.788-.009 1.674-.39 2.449-.615 1.256-1.547 2.243-2.818 2.798-.845.37-1.311.898-1.413 1.804-.09.805-.536 1.109-1.366 1.107-.84-.002-.986-.276-.758-1.034 2.628-8.773 5.24-17.55 7.945-26.633" fill="#292D35"/><path d="M40.686 64.735c-.083 1.311-.221 2.373-1.325 3.24-1.162.912-1.638 2.377-1.997 3.784-1.215 4.787-1.172 9.575.159 14.336.354 1.264.891 2.459 1.724 3.484 1.517 1.87 3.513 1.885 4.987-.012.697-.897 1.23-1.927 1.914-2.85-.52 1.859-1.254 3.608-2.833 4.843-1.167.914-2.58.905-3.908.052-1.262-.811-2.14-1.978-2.662-3.35-2.36-6.19-2.506-12.46-.364-18.734.646-1.892 1.663-3.608 3.568-4.56.198-.098.425-.136.737-.233" fill="#292D35"/><path d="M43.9 74.207c-.875-1.155-.989-1.198-3.092-1.093.559-1.593 1.044-3.126 1.644-4.612.27-.665 1.653-.483 1.748.355.26 2.302 1.46 4.391 1.652 6.582.247 2.814-3.697 5.521-6.496 4.993-.89-.168-.672-.604-.463-1.125.965-2.393 2.525-4.203 5.007-5.1M49.312 61.005c1.102 2.155 2.112 4.063 3.06 6.003.529 1.08-.467 1.83-.795 2.782-.722-1.49-1.445-2.978-2.273-4.683-.441.951-.86 1.65-1.093 2.407-.293.95-.941 1.185-1.763 1.035-.56-.102-.967-1.807-.581-2.401 1.076-1.651 2.189-3.276 3.445-5.143M76.028 56.158c-.833-.868-1.46-1.586-2.285-2.054-.677-.383-1.377-.691-2.17-.737-1.465-.085-1.602.08-1.163 1.46l1.846 5.797c-1.389.248-2.029-.352-2.354-1.631-.381-1.494-.95-2.94-1.409-4.323-.62-.465-.86 1.112-1.372.182-.412-.746-.686-1.543.386-2.224 1.774-1.126 3.847-1.154 5.837.145 1.231.804 2.136 1.893 2.684 3.385M53.858 63.6c-.902-1.84-1.699-3.48-2.517-5.112-.174-.349-.139-.625.073-.935 2.342-3.424 4.676-6.855 7.263-10.16-.521 1.207-1.013 2.426-1.567 3.616-1 2.146-2.033 4.277-3.062 6.409-.256.531-.547 1.036-.1 1.61 1.14 1.457.45 2.885-.09 4.572M68.52 63.602c.71-1.677 2.236-2.053 3.48-.86 1.838 1.767 1.867 6.208.053 8.036-1.03 1.035-2.282 1.003-3.271-.106-.51-.574-.875-1.226-1.022-2.237.871.868 1.634 1.433 2.609.59 1.046-.904 1.314-3.193.514-4.602-.547-.962-1.3-1.405-2.393-.849l.03.028M40.392 36.252c-.103.795-.179 1.656-.981 1.668-.802.01-.967-.821-.963-1.52.002-.731.068-1.633 1.002-1.609.833.022.794.932.942 1.461M10.311 76.308c.109.11.217.222.324.332-.615.798-1.33 1.481-2.476 2.246.627-1.25 1.405-1.902 2.152-2.578" fill="#292D35"/><path d="M42.454 30.587c-.99-.685-1.615-1.479-2.183-2.316-1.394-2.05-1.25-2.784.809-4.223 1.366-.957 2.9-1.452 4.78-1.714-1.48 1.403-2.8 2.677-3.7 4.771 1.878-1.524 3.485-2.774 5.992-3.208-2.687 1.9-4.78 3.782-5.698 6.69m37.976 3.59c-.748-.501-1.094-1.129-1.405-1.91-1.877-4.718-3.698-9.465-6.63-13.666-1.168-1.674-2.42-3.28-4.101-4.505.822 1.46 1.625 2.907 2.151 4.694-2.465-2.623-4.232-6.132-8.868-4.525.986-1.547 1.856-2.817 2.275-4.31.07-.253.198-.466.463-.493.81-.086 1.709-.013 2.024-1.025.261-.843.233-1.725.15-2.596-.26-2.685-2.515-5.24-4.828-5.49 1.815 1.87 2.265 2.726 2.274 4.424-1.112-1.493-2.197-2.915-4.375-3.632 1.246 1.59 2.02 2.942 2.214 4.637-1.493-.03-2.777-.637-4.35-.88 1.56 1.619 3.452 2.425 5.092 3.593-2.599-.284-4.986-1.203-7.403-2.4.106 1.082.686 1.6 1.28 2.089.31.256.616.47.5.94-.56 2.267.365 4.024 2.068 5.586-1.565.167-2.715-.312-3.68-1.304-.265-.271-.438-.658-.866-.728-2.405-.394-4.75-.256-7.314.732 1.072.267 1.968-.006 2.765.657-1.803.479-3.536.84-5.262 2.02 1.646-.066 3.002-.298 4.444.156-7.565 2.888-12.162 6.998-12.261 10.98 1.23-.61 1.822-.189 2.025 1.132.12.8.529 1.55.777 2.333.455 1.427 1.116 2.21 2.895 1.912 2.02-.34 4.086-.1 5.911 1.765-1.546-.154-2.336.212-2.046 1.73.12.627-.385.9-.99.988-1.123.16-2.253.169-3.568.079.621 1.1 1.707 1.217 2.41 1.992h-2.997c1.892 1.034 1.454 2.469.873 3.906-.49 1.206-1.033 2.391-1.608 3.713 1.366-.358 2.298-1.157 3.495-2.106-.802 1.985-1.934 3.387-3.018 5.008 1.371-.089 2.36-.647 3.465-1.263-.3 1.613-1.326 2.685-1.869 4.05 1.226.088 2.175-.582 3.322-.814-.412 4.772-1.488 9.294-2.677 14.22.983-1.046 1.402-1.919 1.766-2.798 2.231-5.384 3.18-11.114 4.37-16.77.321-1.522.543-3.047 1.303-4.427.285-.519.524-.752.989-.075.93 1.352 2.576 2.56 2.757 3.976.18 1.43-1.464 2.806-2.26 4.232-.164.297-.351.578-.52.872-.27.468-.42.93-1.07.239-.574-.612-.907.051-1.121.545-.636 1.47.357 2.547.89 3.916.309-.44.536-.734.733-1.046 2.561-4.04 5.108-8.09 7.683-12.123.469-.734.952-1.42.485-2.333 2.295-.26 2.295-.26 2.934 1.86.168.555.412 1.099.493 1.666.186 1.288 1.146 1.042 1.876.893.903-.185.187-.865.16-1.29-.033-.57-.27-1.124-.42-1.686-.468-1.735-.468-1.715 1.294-1.779 2.889-.107 5.776-.243 8.663-.372.375-.016.852.023.854-.53.001-.57-.485-.483-.854-.513-.192-.014-.386-.011-.579-.018-6.402-.239-12.804-.472-19.208-.717-1.685-.064-3.37-.217-5.054-.226-.93-.006-1.03-.668-1.069-1.24-.06-.853.683-.441 1.039-.44 2.987.012 5.976.03 8.96.148 1.084.043 1.47-.123 1.137-1.317-.399-1.439-.548-2.948-.896-4.405-.39-1.644.048-3.048.99-4.37 1.39-1.955 3.193-3.482 5.017-4.992 1.633-1.35 1.634-1.353 2.91.25 1.233 1.552 2.39 3.163 3.368 4.89.379.668.637.823 1.404.408 1.783-.962 3.108-.37 3.676 1.548.407 1.371.645 2.785.647 4.57l-3.858-3.79-.272.238c.573 1.05 1.027 2.191 1.747 3.123.878 1.135 1.01 2.014-.17 2.979-.277.229-.624.605-.481 1.136 2.19-.307 4.358-2.64 6.6-.067-.84.457-1.638.875-2.416 1.322-.852.486-1.002 1.353-.722 2.12.282.773 3.42.83 4.025.165 1.422-1.563 1.199-4.285-.557-5.461" fill="#292D35"/><g transform="translate(0 67.834)"><mask id="b" fill="#fff"><use xlink:href="#a"/></mask><path d="M26.034.224h9.944v31.772l-9.944-9.098V.224zM0 0l35.978 33.698v13.704L10.056 23.364v23.702H0V0z" fill="#40699D" mask="url(#b)"/></g><path fill="#4C7849" d="M49.386 93.557V68.06H39.33v47.065l20.335-17.747 20.224 17.747v-12.356l-20.336-18.87z"/><path d="M79.837 81.894c-.278.116-.551.238-.826.36-1.664 1.956-3.863 2.8-6.39 3.267l-.002-.018c-.246.048-.496.089-.754.12a2.03 2.03 0 01-.748-.052c-.126.034-.25.076-.378.108-.32.08-.622.106-.906.09v6.447l10.056 9.324V81.87l-.052.024" fill="#4C7849"/><g transform="translate(83.91 68.059)"><mask id="d" fill="#fff"><use xlink:href="#c"/></mask><path d="M0 4.269C0 1.423 1.378 0 4.134 0h5.922v18.647h15.866V9.885H10.99V0h20.853c2.83 0 4.246 1.46 4.246 4.381v42.46H25.922V28.42H10.056V46.84H0V4.27z" fill="#40699D" mask="url(#d)"/></g><path d="M29.602 25.898c0 .396.026.502-.004.586-.356.965.345 2.252-.354 2.922-1.539 1.475-3.328 2.687-5.108 3.906 1.544-2.58 3.256-5.003 5.466-7.414M36.228 45.683c-5.916 5.28-11.638 10.425-17.791 15.104.945-1.043 1.875-2.103 2.837-3.13 4.788-5.115 9.574-10.233 14.394-15.318.6-.634.762-1.17.539-2.041-.281-1.104-.326-2.283.285-3.56.475 1.63 1.112 2.965 2.508 3.754.247.139.31.35.205.612-1.214 3-.927 6.13-.706 9.528-1.21-1.567-1.845-3.092-2.27-4.949M33.994 35.847c-.141 1.442-.247 2.54-.024 3.627.107.514-.184.806-.515 1.108-7.408 6.775-14.811 13.553-22.218 20.329-.021.02-.075.002-.293.002 7.416-8.574 15.04-16.783 23.05-25.066" fill="#292D35"/><path d="M10.311 76.308c7.094-7.911 14.6-15.421 22.072-22.967.974-.984 1.85-2.07 2.69-3.017.398.211.459.223.48.259 1.15 1.896 1.13 1.875-.52 3.406-8.138 7.543-16.266 15.1-24.398 22.651-.274.055-.407-.034-.324-.332M64.725 84.235c-3.198-.689-6.805-4.542-7.176-7.499-.14-1.117.922-1.15 1.5-1.444.676-.34.495.52.586.828.939 3.187 1.666 4.386 5.09 8.115M39.651 53.22c.528 2.8.567 5.282.314 7.82-.426-1.099-.853-2.194-1.37-3.525l-21.847 18.98c7.237-8.062 14.894-15.654 22.903-23.276" fill="#292D35"/><path d="M10.34 117.641l-1.128-.008c-.661-.006-1.662-.009-3.003-.009l-.025 2.632a359.805 359.805 0 00.025 7.515H4.821c.012-.338.022-1.029.03-2.073s.012-2.065.012-3.063v-2.34c0-.579-.008-1.469-.025-2.67a188.383 188.383 0 00-2.906.004l-1.224.012v-1.167c.578 0 1.28.003 2.107.009a557.14 557.14 0 007.524-.008v1.166zM21.07 127.095l-1.054.871c-.123-.13-.56-.619-1.31-1.468-.752-.85-1.909-2.174-3.472-3.973l.008-.077c.213-.056.497-.179.85-.368s.65-.393.892-.614c.208-.192.389-.428.543-.71.154-.283.231-.66.231-1.134 0-.435-.113-.809-.34-1.122a1.963 1.963 0 00-.938-.69 3.55 3.55 0 00-1.026-.224 14.011 14.011 0 00-1.456-.034 9.666 9.666 0 01-.235.005 397.015 397.015 0 00-.026 4.57c0 .773.005 1.822.013 3.148.009 1.326.015 2.158.021 2.497h-1.388a326.543 326.543 0 00.042-5.598v-1.565c0-.76-.014-2.148-.042-4.16.056 0 .336-.006.84-.017.504-.011.97-.017 1.395-.017.487 0 .96.028 1.42.085.459.056.907.177 1.344.363.554.237.994.584 1.319 1.043.325.46.487 1 .487 1.619 0 .8-.245 1.466-.734 1.998-.49.533-.953.928-1.39 1.187v.043a65.11 65.11 0 002.529 2.793c.917.96 1.41 1.476 1.476 1.55" fill="#000"/><g transform="translate(21.476 116.288)"><mask id="f" fill="#fff"><use xlink:href="#e"/></mask><path d="M7.532 6.367c-.297-.688-.61-1.407-.94-2.157-.33-.751-.677-1.535-1.04-2.353l-.034.007c-.282.62-.622 1.382-1.02 2.286a244.34 244.34 0 01-.988 2.217l-.004.009h4.03l-.004-.009zm3.655 4.664l-1.31.68a77.464 77.464 0 00-.538-1.26c-.336-.777-.78-1.778-1.332-3.001h-4.98a839.663 839.663 0 00-1.368 3.052c-.321.722-.498 1.125-.532 1.21L0 11.098c.146-.293.747-1.584 1.804-3.875A912.54 912.54 0 005.097 0h1.094a746.25 746.25 0 003.305 7.337 2565.64 2565.64 0 001.691 3.694z" fill="#000" mask="url(#f)"/></g><path d="M36.129 127.772H34.74l.025-1.81a313 313 0 00.017-3.738c0-.642-.003-1.485-.009-2.528a341.15 341.15 0 00-.033-3.247h1.388a467.304 467.304 0 00-.042 5.429 349.567 349.567 0 00.042 5.894M46.962 127.755l-1.064-.009a283.764 283.764 0 00-4.331 0c-.592.006-1.093.009-1.502.009.011-.97.021-1.952.03-2.947.008-.995.012-1.972.012-2.93a299.495 299.495 0 00-.042-5.43h1.388a432.278 432.278 0 00-.033 4.858 701.546 701.546 0 00.016 5.282c.23 0 .508.001.833.004a238.22 238.22 0 003.503-.008l1.19-.013v1.184zM55.904 124.482c0-.287-.05-.545-.152-.774a2.268 2.268 0 00-.454-.655c-.19-.191-.453-.347-.786-.465a3.237 3.237 0 00-1.09-.177c-.314 0-.567.002-.76.008-.194.006-.322.008-.384.008l-.134-1.014c.415-.012.78-.061 1.097-.148.317-.088.6-.219.846-.394.235-.169.429-.384.58-.647.152-.261.227-.556.227-.883 0-.344-.083-.641-.251-.892a1.763 1.763 0 00-.689-.596 3.368 3.368 0 00-.906-.267 7.063 7.063 0 00-1.15-.088c-.264 0-.505.004-.727.012-.22.008-.362.013-.423.013-.017.823-.027 1.697-.03 2.621a346.216 346.216 0 00.008 4.934l.013 1.569.45.021a14.725 14.725 0 002.335-.09c.55-.066 1.016-.207 1.397-.421.314-.175.556-.404.726-.685a1.87 1.87 0 00.257-.99m1.43-.042c0 .564-.145 1.071-.433 1.522-.289.451-.707.82-1.256 1.108a5.97 5.97 0 01-1.605.554 10.36 10.36 0 01-2 .173c-.555 0-1.124-.01-1.71-.03-.585-.02-.912-.032-.979-.038.017-1.082.028-2.104.034-3.065.006-.961.008-1.879.008-2.752a287.6 287.6 0 00-.042-5.446c.078-.006.388-.02.929-.043.54-.022 1.065-.033 1.575-.033.576 0 1.109.038 1.596.114.487.076.9.182 1.235.317.51.203.91.495 1.202.875.29.38.436.847.436 1.4 0 .58-.182 1.095-.548 1.543-.366.448-.783.754-1.252.918v.084c.386.034.76.126 1.124.275.363.15.682.362.956.638.24.243.422.51.545.804.123.293.184.653.184 1.082M67.25 127.755l-1.063-.009a283.764 283.764 0 00-4.332 0c-.592.006-1.092.009-1.502.009.012-.97.021-1.952.03-2.947.008-.995.012-1.972.012-2.93a299.497 299.497 0 00-.042-5.43h1.388a398.026 398.026 0 00-.033 4.858 664.684 664.684 0 00.017 5.282c.23 0 .507.001.832.004a238.22 238.22 0 003.503-.008l1.19-.013v1.184z" fill="#000"/><g transform="translate(67.814 116.288)"><mask id="h" fill="#fff"><use xlink:href="#g"/></mask><path d="M7.532 6.367c-.297-.688-.61-1.407-.94-2.157-.33-.751-.678-1.535-1.04-2.353l-.034.007c-.282.62-.623 1.382-1.02 2.286a254.86 254.86 0 01-.988 2.217l-.004.009h4.03l-.004-.009zm3.655 4.664l-1.31.68a77.464 77.464 0 00-.538-1.26c-.336-.777-.78-1.778-1.332-3.001h-4.98a827.465 827.465 0 00-1.368 3.052c-.321.722-.499 1.125-.532 1.21L0 11.098c.146-.293.747-1.584 1.804-3.875A912.17 912.17 0 005.097 0h1.094a737.901 737.901 0 003.305 7.337 2150.17 2150.17 0 001.691 3.694z" fill="#000" mask="url(#h)"/></g><path d="M88.977 127.755a1359.067 1359.067 0 00-4.416-.017 483.785 483.785 0 00-4.6.017l-.38-.88c.815-.998 1.894-2.348 3.238-4.05a327.42 327.42 0 004.012-5.184l-.008-.017c-.528-.005-1-.008-1.415-.008h-1.044c-1.072 0-2.02.004-2.842.013l-1.402.012v-1.167c.448 0 .998.003 1.649.009a475.058 475.058 0 006.553-.009l.411.88c-.364.45-1.206 1.509-2.526 3.175a1150.94 1150.94 0 00-4.694 5.974l.009.017c.353.006.773.011 1.26.017a200.991 200.991 0 004.783-.013c.885-.014 1.356-.02 1.412-.02v1.25zM98.507 127.755l-1.118-.009a320.044 320.044 0 00-4.539 0c-.59.006-1.092.009-1.5.009.01-.327.02-1.035.029-2.123a444.851 444.851 0 00.004-5.902 329.274 329.274 0 00-.034-3.256c.398 0 .896.003 1.493.009a337.231 337.231 0 005.556-.009v1.176l-1.056-.013a193.98 193.98 0 00-3.655-.008l-.959.004c0 .637-.005 1.273-.016 1.906a99.39 99.39 0 00-.017 1.798c.252 0 .551.001.896.004.345.002.652.004.92.004.988 0 1.87-.004 2.646-.013l1.24-.012v1.166l-1.387-.012c-.88-.009-1.685-.013-2.414-.013-.269 0-.59.002-.963.004-.373.003-.686.005-.938.005a309.529 309.529 0 00.025 4.11 249.355 249.355 0 005.787 0v1.175zM110.44 127.095l-1.053.871c-.123-.13-.56-.619-1.31-1.468a668.51 668.51 0 01-3.473-3.973l.009-.077c.213-.056.496-.179.85-.368.353-.189.65-.393.892-.614.207-.192.388-.428.543-.71.154-.283.23-.66.23-1.134 0-.435-.113-.809-.34-1.122a1.963 1.963 0 00-.938-.69 3.55 3.55 0 00-1.026-.224 14.011 14.011 0 00-1.455-.034 9.666 9.666 0 01-.235.005 397.026 397.026 0 00-.026 4.57c0 .773.004 1.822.013 3.148.008 1.326.015 2.158.02 2.497h-1.387a326.551 326.551 0 00.042-5.598v-1.565c0-.76-.014-2.148-.042-4.16.056 0 .336-.006.84-.017a63.25 63.25 0 011.394-.017c.488 0 .961.028 1.42.085.46.056.908.177 1.345.363.554.237.993.584 1.319 1.043.324.46.487 1 .487 1.619 0 .8-.245 1.466-.735 1.998-.49.533-.953.928-1.39 1.187v.043a65.109 65.109 0 002.53 2.793c.916.96 1.41 1.476 1.476 1.55M118.316 124.584c0 .58-.136 1.09-.409 1.526a3.15 3.15 0 01-1.099 1.061 5.127 5.127 0 01-1.448.562 7.984 7.984 0 01-1.81.191c-.36 0-.732-.011-1.117-.034a34.955 34.955 0 01-.67-.042l-.067-1.218a14.987 14.987 0 001.926.11c.298 0 .682-.04 1.153-.118.47-.08.832-.18 1.085-.305.33-.163.584-.36.761-.592.177-.231.265-.524.265-.879 0-.378-.088-.698-.265-.96-.177-.262-.47-.514-.879-.757a11.75 11.75 0 00-1.026-.533c-.42-.197-.8-.4-1.135-.608-.573-.35-.98-.732-1.224-1.146a2.674 2.674 0 01-.366-1.383c0-.518.11-.968.332-1.348.222-.381.51-.706.864-.977.36-.27.799-.474 1.318-.609a6.866 6.866 0 011.73-.203c.349 0 .701.01 1.058.03.357.02.56.032.611.038l.118 1.226c-.05-.006-.255-.026-.614-.06a14.65 14.65 0 00-1.33-.05c-.313 0-.637.035-.97.106-.335.07-.628.179-.88.325-.224.13-.415.31-.572.541a1.41 1.41 0 00-.236.812c0 .276.083.543.249.8.165.256.475.52.93.79.229.14.533.303.912.486.378.183.75.382 1.114.596.561.333.983.715 1.266 1.146.283.431.425.923.425 1.476" fill="#000"/></g></svg>
