<svg xmlns="http://www.w3.org/2000/svg" xmlns:xlink="http://www.w3.org/1999/xlink" viewBox="0 0 120 162"><defs><path id="a" d="M0 162h120V0H0z"/></defs><g fill="none" fill-rule="evenodd"><path fill="#F8981D" d="M.001 0L0 81l119.999.001v-81z"/><g><path d="M21.808 43.39v20.484h2.98c3.157 0 3.859-1.489 3.859-4.378V47.592c0-2.714-.702-4.203-3.858-4.203h-2.981zm0-26.613v16.894h2.98c2.631 0 3.42-1.837 3.42-4.55v-8.23c0-2.626-.701-4.114-3.42-4.114h-2.98zM11.9 7.935h15.607c8.24 0 10.432 4.29 10.432 10.593v9.979c0 5.428-2.366 8.053-4.91 9.017 2.631.876 5.7 3.064 5.7 9.542V61.16c0 6.914-3.069 11.905-10.521 11.905H11.9V7.936z" fill="#FFF"/><mask id="b" fill="#fff"><use xlink:href="#a"/></mask><path fill="#FFF" mask="url(#b)" d="M41.794 73.065h9.908V7.935h-9.908zM65.29 73.066h-9.908V7.936h9.908v26.086l7.803-26.087h9.644l-9.206 30.29 10.17 34.84h-10.17L65.29 44.79zM107.547 7.936v9.454H94.921v17.07h9.908v9.892H94.92v18.821h13.152v9.893H85.014V7.936z"/><path fill="#212121" mask="url(#b)" d="M120 162l-120-.001L.001 81l120 .001z"/><path fill="#FFF" mask="url(#b)" d="M20.843 88.934l8.504 34.93v-34.93h9.03v65.13h-8.065l-9.469-37.467v37.467H11.9v-65.13zM68.185 88.934l4.471 42.195 4.56-42.195h9.292l-8.329 65.13H67.571l-4.12-37.905-4.21 37.905H48.283l-8.153-65.13h9.994l4.472 42.108 4.384-42.108zM94.22 132.092h5.173l-2.63-24.074-2.543 24.074zm6.226 9.716h-7.278l-1.226 12.256h-8.856l7.979-65.13h11.747l8.505 65.13h-9.557l-1.314-12.256z"/></g></g></svg>
