<svg id="Layer_1" data-name="Layer 1" xmlns="http://www.w3.org/2000/svg" viewBox="0 0 478.58 205.23"><defs><style>.cls-1{fill:#231f20;}</style></defs><path class="cls-1" d="M33,9.21H22.73v46.6H10.18V9.21H0V0H33Z"/><path class="cls-1" d="M52,34.93h-2.2V55.81H37.38V0h23c8,0,11.06,3.69,11.06,9.65V25.27c0,4.83-2,8.16-7,9.3l9.83,21.24H60.81Zm-2.2-8.87H56.6c1.67,0,2.28-.52,2.28-2.1V11.41c0-1.58-.61-2.2-2.28-2.2H49.84Z"/><path class="cls-1" d="M102.05,45.72H89.33L87.4,55.81H75L87.66,0h16l13,55.81H104Zm-1.84-9.13L95.65,13l-4.57,23.6Z"/><path class="cls-1" d="M133.64,0V55.81H121.18V0Z"/><path class="cls-1" d="M170.32,46.6v9.21H141.8V0h12.46V46.6Z"/><path class="cls-1" d="M197.52,0c8,0,11.15,3.69,11.15,9.65v9.83c0,3.95-.88,6.85-3.95,8.16,3.07,1.14,3.95,3.69,3.95,7.55V46.07c0,6-3.16,9.74-11.15,9.74H174.35V0Zm-1.23,10.79c0-1.58-.61-2.19-2.37-2.19h-7.19V23.43h7.19c1.76,0,2.37-.61,2.37-2.19Zm0,23.35c0-1.58-.61-2.11-2.37-2.11h-7.19V47.21h7.19c1.76,0,2.37-.61,2.37-2.19Z"/><path class="cls-1" d="M244.64,46.6v9.21H216.12V0h12.46V46.6Z"/><path class="cls-1" d="M272.2,45.72H259.47l-1.93,10.09H245.17L257.8,0h16l13,55.81H274.13Zm-1.85-9.13L265.79,13l-4.56,23.6Z"/><path class="cls-1" d="M321.42,9.21,301.5,46.6h19.4v9.21H288.51V46.6L308.43,9.21H289.57V0h31.85Z"/><path class="cls-1" d="M357.22,46.6v9.21H326.77V0h29.75V9.21h-17.2V22.82H354V32H339.32V46.6Z"/><path class="cls-1" d="M377.32,34.93h-2.2V55.81H362.66V0h23c8,0,11.06,3.69,11.06,9.65V25.27c0,4.83-2,8.16-7,9.3l9.83,21.24H386.09Zm-2.2-8.87h6.76c1.67,0,2.28-.52,2.28-2.1V11.41c0-1.58-.61-2.2-2.28-2.2h-6.76Z"/><path class="cls-1" d="M423.21,34.31c0-1.58-.61-2.1-2.37-2.1h-7.72c-7.72,0-10.36-3.87-10.36-9.83V9.65c0-6,3.08-9.65,11.06-9.65h10.71c8,0,11.05,3.69,11.05,9.65v7.29H423V11.41c0-1.58-.61-2.2-2.36-2.2h-3c-1.75,0-2.37.62-2.37,2.2v9.83c0,1.58.62,2.1,2.37,2.1h7.55c7.81,0,10.53,3.6,10.53,9.57V46.07c0,6-3.07,9.74-11.06,9.74H414.08c-8,0-11.14-3.69-11.14-9.74v-7.2h12.55V44.4c0,1.58.61,2.2,2.37,2.2h3c1.76,0,2.37-.62,2.37-2.2Z"/><path class="cls-1" d="M478.58,32.64H465.33V46.07H453.48V32.64H440.23v-9.3h13.25V9.92h11.85V23.34h13.25Z"/><path class="cls-1" d="M383.51,92.37q0-3.09,1.32-4.29c.88-.81,2.42-1.21,4.62-1.21h9c2,0,3.52.4,4.4,1.21a3.78,3.78,0,0,1,1.07,2c.17.65,6.35,23.66,6.35,23.66h25.6V89.51q0-24.21-28-24.2H379.76Q352,65.31,352,89.51V181q0,24.19,27.74,24.2h28.18q28,0,28-24.2v-24.2H410.3s-6.18,23-6.35,23.66a3.86,3.86,0,0,1-1.07,2c-.88.81-2.35,1.2-4.4,1.2h-9c-2.2,0-3.74-.39-4.62-1.2s-1.32-2.24-1.32-4.29ZM248.78,65.31h31V205.23h-31V147.58H220.6v57.65h-31V88.41l6.19-23.1H220.6v59.18h28.18Zm51.51,139.92h31.26V65.31H300.29ZM185.52,65.31l-6.19,23.1H156.66V205.23H125.18V88.41H96.55l6.19-23.1ZM41.4,182.13H86.31l6.19,23.1H9.92V65.31H92.5l-6.19,23.1H41.4v34.1H78.17v23.1H41.4Z"/></svg>