<svg version="1.1" id="Layer_1" xmlns="http://www.w3.org/2000/svg" x="0" y="0" viewBox="0 0 680.6 87.6" xml:space="preserve"><style>.st7{fill:#fff}</style><path class="st7" d="M79.6 54.8v32.7H60V0h36c11.6 0 17.3 5 17.3 15.1v24.5c0 8.1-3.7 12.9-11 14.6l15.4 33.3H96.8L83 54.8h-3.4zm0-40.3v26.4h10.6c1.3 0 2.2-.2 2.8-.8.6-.5.8-1.4.8-2.5V17.9c0-2.3-1.2-3.4-3.6-3.4H79.6zM274.4 0h36.3c11.6 0 17.5 5 17.5 15.1v15.4c0 6.8-2.1 11.1-6.2 12.8 4.1 1.6 6.2 5.5 6.2 11.8v17.1c0 10.2-5.8 15.3-17.5 15.3h-36.3V0zm34.4 33.3V17c0-2.3-1.2-3.4-3.7-3.4h-11.3v23.3h11.3c2.5-.1 3.7-1.3 3.7-3.6zm0 37.3v-17c0-1.2-.3-2-.8-2.5-.6-.5-1.5-.8-2.9-.8h-11.3v23.8h11.3c2.5 0 3.7-1.2 3.7-3.5zM586.7 54.8v32.7h-19.5V0h36c11.6 0 17.3 5 17.3 15.1v24.5c0 8.1-3.7 12.9-11 14.6L625 87.6h-21.1l-13.8-32.7h-3.4zm0-40.3v26.4h10.6c1.3 0 2.2-.2 2.8-.8.6-.5.8-1.4.8-2.5V17.9c0-2.3-1.2-3.4-3.6-3.4h-10.6zM169 87.5l-3-15.8h-20l-3 15.8h-19.4L143.4 0h25l20.4 87.5H169zm-20.2-30.1h14.3l-7.2-37-7.1 37zM195.3 0h19.5v87.5h-19.5V0zM376.6 73.2v-.1h-21.3V0h-19.6v87.5h44.2zM424.7 0h-25l-16.5 73.1 3.3 14.4h12.8l3-15.8h20l3 15.8H445L424.7 0zM405 57.4l7.2-37 7.2 37H405zM55.1 0H3.9L.1 14.5h17.8v73.1h19.7V14.5h14.2zM265 73.1h.1-21.4V0h-19.5v87.5h44.2zM676.7 40.4c-2.6-2.5-6.8-3.8-12.7-3.8h-11.8c-1.4 0-2.3-.3-2.9-.8-.6-.5-.8-1.4-.8-2.5V17.9c0-2.3 1.2-3.4 3.7-3.4h4.7c2 0 3.2.8 3.6 2.4l2.2 9.7h17.5V15.2c0-10.1-5.8-15.1-17.3-15.1h-16.8c-11.6 0-17.3 5-17.3 15.1v20c0 10.3 5.4 15.4 16.2 15.4h12.1c1.4 0 2.3.3 2.9.8.6.5.8 1.4.8 2.5v15.8c0 2.3-1.2 3.4-3.7 3.4h-4.7c-2 0-3.2-.8-3.6-2.3l-2.3-9.8H629v11.3c0 10.2 5.8 15.3 17.5 15.3h16.6c11.6 0 17.3-5.1 17.3-15.3V51.6c.1-4.9-1.1-8.7-3.7-11.2zM501.5 0v14.4L470.4 73h30.4v14.4l-50.7.1V73.1l31.1-58.6h-29.6V.1l49.9-.1zM556.5 73.2l-.1-.1h-28V50.3h23V35.8h-23V14.5h28L559.8 0h-51.1v87.6h51.1z"/></svg>
