<svg xmlns="http://www.w3.org/2000/svg" viewBox="0 0 500 165"><path d="M438.501 31.913c0-2.424.516-4.11 1.55-5.059 1.035-.955 2.84-1.427 5.424-1.427h10.596c2.41 0 4.135.472 5.169 1.427.584.537 1.004 1.31 1.258 2.323.194.773 7.457 27.9 7.457 27.9H500V28.539C500 9.511 489.058 0 467.182 0h-33.075c-21.705 0-32.56 9.511-32.56 28.54v107.923c0 19.028 10.855 28.537 32.56 28.537h33.075c21.876 0 32.818-9.51 32.818-28.537v-28.538h-30.045s-7.263 27.127-7.457 27.9c-.254 1.012-.674 1.786-1.258 2.323-1.034.955-2.758 1.425-5.17 1.425h-10.595c-2.583 0-4.389-.47-5.424-1.425-1.034-.95-1.55-2.635-1.55-5.06V31.914zM280.364.002h36.434V165h-36.434V97.026h-33.075V165h-36.434V27.241l7.268-27.24h29.166v69.787h33.075V.002zM340.827 165h36.69V.002h-36.69V165zM206.108.002l-7.268 27.237h-26.6V165h-36.954V27.24h-33.61l7.27-27.238h97.162zM36.95 137.762h52.712L96.932 165H0V.002h96.932l-7.27 27.237H36.95v40.213h43.152v27.24H36.95v43.07z" fill="#FFF" fill-rule="evenodd"/></svg>
