<svg xmlns="http://www.w3.org/2000/svg" viewBox="0 0 74 602"><path d="M73 281.727c-3.813 8.685-7.858 17.238-11.852 25.68h0l-1.087 2.299C42.092 347.713 22.601 379.08 1 404.653h0V403.2c21.265-25.356 40.483-56.376 58.218-93.892h0l1.087-2.298c4.29-9.075 8.637-18.277 12.695-27.628h0zm-68.063-74.39c8.484 3.055 19.747 29.559 18.945 41.369-.267 3.924-.55 4.663-1.21 4.78-.786.135-1.257-.94-2.514-3.812-2.48-5.67-7.097-16.226-16.648-21.282-.89-.47-1.724-.937-2.51-1.402h0v-1.094c.87.536 1.845 1.089 2.946 1.67 9.84 5.21 14.542 15.96 17.067 21.735h0l.224.511c.485 1.103.956 2.149 1.257 2.582.134-.42.3-1.438.457-3.752.027-.381.039-.782.039-1.196 0-11.808-10.62-36.44-18.37-39.232-1.384-.498-2.573-.264-3.62.708h0v-1.18c1.165-.774 2.5-.922 3.937-.405zM39.756 539.45c0 9.96-8.247 32.435-26.046 61.551h0-.468c17.847-29.142 26.114-51.619 26.114-61.551 0-.688-.043-1.146-.078-1.411C37.94 528.223 17.526 506.953 1 496.474h0v-.465c16.648 10.503 37.322 32.047 38.675 41.975.037.276.082.756.082 1.465zM29.577 239.425c0 18.787-5.157 31.372-7.854 31.688-.367.042-1.027-.078-1.333-1.37-2.754-11.627-7.463-25.606-19.39-35.048h0v-.87c12.401 9.566 17.224 23.886 20.04 35.765.079.339.263.9.607.86 2.155-.251 7.263-12.56 7.263-31.025 0-2.106-.065-4.26-.195-6.405-.513-8.456-12.35-28.433-21.112-35.624-2.122-1.743-3.91-2.572-5.177-2.4a5.25 5.25 0 00-1.425.422h0v-.745a6.272 6.272 0 011.335-.337c1.474-.2 3.389.656 5.69 2.545 8.86 7.273 20.834 27.515 21.355 36.098.13 2.157.196 4.325.196 6.446zM73 505.584c-5.94-10.55-13.652-19.978-22.708-27.566-7.66-6.417-14.513-7.773-21.622-8.71l-.854-.112-1.287-.162c-5.665-.712-11.525-1.447-18.066-4.487-2.465-1.145-4.14-3.024-5.695-4.918l-.488-.598A63.791 63.791 0 001 457.502h0v-1.392c.704.748 1.36 1.542 2.005 2.333 1.633 2.007 3.322 4.083 5.85 5.258 6.41 2.977 12.196 3.705 17.79 4.408 8.028 1.007 15.61 1.958 24.246 9.195 8.731 7.313 16.229 16.322 22.109 26.392h0zM3.725 311.444c0 6.439-.942 12.584-2.725 18.279h0v-1.348c1.528-5.308 2.324-10.996 2.324-16.932 0-6.037-.81-12.096-2.324-18.048h0v-1.635c1.788 6.475 2.725 13.093 2.725 19.683zm45.5 228.004c0 12.98-9.217 35.754-24.468 61.552h0-.772c15.312-25.828 24.572-48.62 24.572-61.552 0-.967-.055-1.86-.163-2.654C46.377 522.006 20.103 496.086 1 485.839h0v-.75c19.275 10.236 46.005 36.59 48.054 51.614.113.825.17 1.75.17 2.745zm23.574-324.153c0 2.267-.186 4.724-.55 7.304-5.058 35.684-12.806 77.422-40.92 121.247C21.605 359.001 11.731 373.82 1 387.601h0v-1.091c10.514-13.571 20.214-28.134 29.766-43.023 28.041-43.713 35.774-85.368 40.82-120.981.362-2.55.546-4.977.546-7.211 0-14.18-7.267-20.974-16.466-29.573-3.581-3.347-7.283-6.805-11.07-11.113-4.37-4.97-7.342-11.252-10.214-17.328-4.593-9.715-8.932-18.894-18.457-22.637-5.25-2.064-10.21-2.253-14.925-1.115h0v-.703c4.783-1.122 9.822-.905 15.168 1.197 9.771 3.84 14.166 13.135 18.818 22.974 2.852 6.033 5.802 12.272 10.111 17.173 3.765 4.281 7.455 7.73 11.023 11.066 9.318 8.71 16.678 15.588 16.678 30.059zm-34.5 17.359c0 2.312-.198 4.722-.429 7.512h0l-.106 1.305c-2.496 30.952-14.537 52.476-16.727 53.672-.435.236-.798.283-1.111.138-.815-.371-1.152-1.922-1.823-5.012-1.351-6.222-3.869-17.802-13.563-35.172A58.405 58.405 0 001 249.564h0v-.703a58.446 58.446 0 013.888 6.042c9.724 17.422 12.25 29.039 13.606 35.281.602 2.772.965 4.445 1.598 4.734.122.057.333.103.753-.127 2.08-1.134 14.082-23.113 16.52-53.353h0l.107-1.306c.23-2.78.427-5.183.427-7.478 0-7.975-2.245-14.427-15.005-29.525-2.034-2.406-3.918-4.867-5.742-7.247-5.563-7.257-10.366-13.527-15.672-13.129-.16.013-.32.042-.48.066h0v-.404c.15-.022.3-.048.45-.06 5.52-.416 10.386 5.934 16.02 13.285 1.82 2.376 3.702 4.832 5.73 7.231C36.04 218.064 38.3 224.58 38.3 232.654zM73 170.217c-2.216-1.616-3.631-1.313-5.12-.758l-.32.122h0l-.162.063c-1.42.555-3.028 1.182-5.304.405h0l-1.543-.525c-12.23-4.157-12.371-4.289-15.173-13.975a248.531 248.531 0 00-2.004-6.664c-2.107-6.606-5.108-9.646-8.352-12.418l-.476-.404-.72-.604c-2.777-2.325-5.65-4.727-7.89-9.162h0l.409-.206-.431-.105c.008-.053.01-.163.01-.327 0-6.747-2.913-40.677-10.691-43.106-1.978-.618-4.245.898-6.74 4.505-3.265 4.72-3.683 8.167-3.683 10.643 0 1.13.1 2.168.196 3.172.088.902.17 1.755.17 2.586 0 2.597-.838 4.803-4.176 7.125h0v-1.163c2.887-2.188 3.243-4.085 3.243-5.962 0-.787-.08-1.617-.165-2.496-.1-1.027-.202-2.088-.202-3.262 0-2.409.4-6.186 3.85-11.174 2.754-3.981 5.373-5.618 7.784-4.866 8.95 2.795 11.347 39.194 11.347 43.998 0 .134 0 .258-.01.37 2.139 4.163 4.781 6.373 7.577 8.713 3.635 3.042 7.394 6.189 9.838 13.86a245.73 245.73 0 012.012 6.687c2.693 9.312 2.693 9.312 14.577 13.35h0l1.544.528c1.954.666 3.27.152 4.663-.39h0l.334-.13c1.565-.599 3.219-1.073 5.608.44h0zM2.786 1A456.64 456.64 0 011 3.756h0v-.733c.438-.676.882-1.352 1.313-2.023h0zm21.972 0C19.949 9.135 14.547 17.566 8.637 26.09A376.68 376.68 0 011 36.687h0v-1.112a371.487 371.487 0 007.088-9.865C13.91 17.315 19.235 9.013 23.985 1h0zM73 299.568c-1.395 2.362-2.057 4.955-2.057 7.989 0 2.855.585 5.82 1.153 8.69.342 1.73.676 3.497.904 5.267h0v6.738c-.275 1.666-.754 3.22-1.504 4.675-2.852 5.535-6.644 7.834-10.31 10.057h0l-.478.29-.475.29-.472.292c-3.918 2.448-7.467 5.287-9.216 12.762-4.34 18.54-8.862 23.61-19.79 35.86-1.393 1.563-2.89 3.24-4.501 5.076-3.898 4.442-8.31 7.695-12.579 10.84-3.741 2.756-7.61 5.609-11.117 9.25-.559.583-1.075 1.161-1.558 1.735h0v-1.4c.292-.327.57-.653.888-.981 3.561-3.7 7.461-6.575 11.234-9.355 4.228-3.117 8.6-6.339 12.43-10.703 1.614-1.84 3.112-3.52 4.507-5.083 10.815-12.125 15.291-17.142 19.577-35.454 1.94-8.29 5.973-11.109 10.335-13.774l.486-.296h0l.549-.333c3.46-2.101 7.006-4.352 9.66-9.5 1.125-2.183 1.672-4.585 1.672-7.342 0-2.876-.589-5.852-1.158-8.73-.576-2.912-1.172-5.925-1.172-8.871 0-3.747.959-6.86 2.992-9.693h0zM40.234 1C29.074 20.773 15 41.237 1 58.762h0V57.36C14.65 40.195 28.325 20.281 39.237 1h0zm18.625 220.404c0 2.065-.17 4.303-.503 6.655-4.47 31.54-11.94 66.419-36.135 107.71C15.125 347.878 8.13 359.106 1 369.426h0v-.7c7.013-10.18 13.893-21.247 20.875-33.16 24.16-41.232 31.621-76.063 36.085-107.562.33-2.334.498-4.554.498-6.6 0-12.996-6.65-19.213-15.07-27.084-3.268-3.054-6.649-6.214-10.103-10.141-3.984-4.532-6.406-8.471-8.543-11.946l-.216-.351c-.43-.7-.855-1.389-1.286-2.068l-.432-.676c-2.757-4.262-5.882-8.187-12.206-12.417-3.475-2.326-6.65-3.402-9.602-3.52h0v-.428c3.015.128 6.263 1.232 9.825 3.616 7.894 5.281 10.842 10.079 14.258 15.635 2.128 3.46 4.542 7.385 8.503 11.89 3.443 3.915 6.813 7.066 10.075 10.114 8.491 7.937 15.198 14.206 15.198 27.376zm-38.864 323.37c0 12.3-9.685 29.456-18.995 43.438h0v-.723c9.177-13.844 18.595-30.66 18.595-42.714 0-4.288-1.212-7.752-3.6-10.298-1.093-1.164-2.184-2.346-3.28-3.534-3.735-4.047-7.55-8.175-11.715-11.816h0v-.538c4.283 3.71 8.187 7.94 12.009 12.082 1.095 1.188 2.186 2.371 3.277 3.532 2.46 2.623 3.709 6.18 3.709 10.572zm29.344-316.88c0 1.823-.143 3.841-.44 6.168-2.638 20.68-8.945 42.218-19.283 65.848-2.452 5.606-5.433 12.23-8.95 18.872-.388.73-.883 1.87-1.457 3.185-1.943 4.461-4.879 11.202-8.022 12.075-.959.267-1.715.197-2.246-.206-.557-.425-.84-1.18-.84-2.251 0-1.529.576-3.264 1.11-4.228.73-1.313 2.043-2.241 3.313-3.14 1.817-1.284 3.533-2.499 3.724-4.746.192-2.263-.924-3.012-2.114-3.81-.838-.563-1.707-1.147-2.15-2.27-.258-.653-.383-1.258-.383-1.85 0-1.567.879-2.703 1.81-3.907.827-1.068 1.68-2.172 1.943-3.65.05-.29.076-.592.076-.897 0-2.436-1.64-5.058-3.357-7.622l-.43-.64c-1.439-2.135-2.927-4.344-3.47-6.407-1.987-7.542-4.356-14.265-7.173-20.382h0v-.945c2.987 6.344 5.48 13.34 7.56 21.225.526 1.998 1.93 4.082 3.414 6.286 1.896 2.814 3.857 5.723 3.857 8.485 0 .328-.027.654-.084.967-.28 1.575-1.164 2.718-2.02 3.825-.887 1.147-1.725 2.23-1.725 3.661 0 .541.115 1.1.354 1.706.398 1.007 1.177 1.53 2 2.084 1.23.824 2.51 1.666 2.29 4.176-.19 2.253-1.811 3.555-3.488 4.753l-.402.285c-1.234.873-2.508 1.775-3.195 3.01-.527.948-1.06 2.638-1.06 4.03 0 .645.118 1.504.682 1.933.426.324 1.066.373 1.897.14 2.96-.822 5.85-7.457 7.763-11.85.576-1.323 1.074-2.467 1.47-3.212 3.51-6.631 6.489-13.247 8.938-18.844 10.321-23.595 16.619-45.098 19.25-65.74.295-2.308.438-4.31.438-6.117 0-10.06-4.429-17.89-18.956-33.516-3.598-3.868-6.68-7.842-9.665-11.684-6.6-8.504-11.813-15.22-18.239-15.062A9.43 9.43 0 001 167.73h0v-.406c.357-.05.714-.082 1.068-.091 6.63-.163 11.897 6.624 18.566 15.216 2.978 3.835 6.057 7.802 9.642 11.658 14.61 15.711 19.063 23.605 19.063 33.787zm13.35 311.555c0 15.445-9.165 38.007-22.455 61.551h0-.996c13.32-23.539 22.52-46.118 22.52-61.551 0-1.561-.097-3.055-.286-4.44C58.348 512.097 22.67 480.224 1 471.242h0v-1.012c21.84 8.882 58.217 41.333 61.397 64.654.194 1.424.293 2.96.293 4.565zm-33.2 4.33c0 3.47-.73 6.46-1.342 8.359-3.948 12.248-12.974 29.564-25.36 48.862h0-.474c12.44-19.356 21.5-36.722 25.453-48.985.603-1.87 1.321-4.818 1.321-8.235 0-5.973-2.119-11.255-6.298-15.701C18.44 523.453 9.735 514.578 1 507.912h0v-.498c8.847 6.708 17.685 15.712 22.08 20.39 4.252 4.523 6.408 9.899 6.408 15.976zM13.708 1A409.235 409.235 0 011 20.486h0v-.708A409.089 409.089 0 0013.241 1h0zM7.21 554.847c0 6.596-2.554 12.97-6.21 19.047h0v-.79c3.437-5.848 5.81-11.959 5.81-18.257 0-2.966-.538-5.892-1.6-8.703a36.042 36.042 0 00-4.21-7.97h0v-.676a36.484 36.484 0 014.584 8.506 24.928 24.928 0 011.626 8.843zM73 353.612c-11.203 21.558-25.18 40.144-43.852 58.932-8.188 8.238-12.003 14.484-12.003 19.654 0 1.177.206 2.33.615 3.422 2.04 5.471 9.13 9.567 17.338 14.309 4.308 2.49 9.192 5.312 13.903 8.654A125.442 125.442 0 0173 480.87h0v1.053a124.707 124.707 0 00-24.384-22.795c-4.687-3.326-9.556-6.138-13.852-8.622-8.32-4.807-15.504-8.958-17.63-14.652a10.46 10.46 0 01-.656-3.656c0-5.357 3.876-11.75 12.196-20.123 18.95-19.067 33.054-37.927 44.326-59.912h0zm0-198.329a265.476 265.476 0 01-6.144-8.181C44.434 116.1 33.991 90.05 33.991 65.127h0c0-14.198 3.523-28.27 10.467-41.827 4.2-8.197 9.27-15.416 14.406-22.3h1.165c-5.254 7.02-10.46 14.372-14.74 22.726-6.878 13.425-10.365 27.352-10.366 41.399 0 24.719 10.387 50.594 32.69 81.43A264.663 264.663 0 0073 153.757h0zm0 221.298c-5.827 4.901-11.818 13.892-15.632 19.618-1.081 1.624-2.016 3.028-2.695 3.952-7.443 10.146-12.401 18.526-12.401 26.444 0 1.074.095 2.144.28 3.181 1.131 6.292 5.607 12.025 14.086 18.043A138.82 138.82 0 0173 461.457h0v.554a138.538 138.538 0 00-16.592-13.865c-8.572-6.083-13.1-11.898-14.248-18.299a18.3 18.3 0 01-.288-3.252c0-8.028 4.989-16.471 12.48-26.682.671-.916 1.605-2.316 2.684-3.937 3.876-5.82 9.984-14.983 15.964-19.891h0zM73 5.715c-5.72 7.555-11.532 15.38-15.963 24.029-5.142 10.037-7.537 18.55-7.537 26.794 0 8.632 2.61 16.36 5.632 25.305 1.73 5.12 3.69 10.921 5.344 17.51.853 3.399.952 6.357.952 8.284 0 1.285-.05 2.513-.098 3.7a78.22 78.22 0 00-.087 3.19c.001 5.198 1.233 9.333 7.37 13.876A35.4 35.4 0 0073 131.194h0v.748a35.265 35.265 0 01-4.784-3.004c-6.36-4.71-7.64-9.006-7.64-14.41 0-1.046.043-2.102.087-3.219.048-1.18.097-2.399.097-3.672 0-1.892-.097-4.794-.93-8.123-1.647-6.561-3.603-12.351-5.329-17.456-3.042-9.004-5.669-16.778-5.669-25.52 0-8.354 2.42-16.964 7.612-27.098C61.04 20.47 67.094 12.405 73 4.611h0zm0 389.18c-2.873 1.215-6.323 4.673-10.8 10.777-5.629 7.671-8.365 13.964-8.365 19.236 0 .47.02.944.065 1.405.708 7.617 7.085 12.794 15.157 19.347a375.159 375.159 0 013.944 3.243h0v.52a364.406 364.406 0 00-4.196-3.453c-8.145-6.61-14.58-11.834-15.304-19.621a15.923 15.923 0 01-.066-1.441c0-5.36 2.762-11.732 8.44-19.473 4.587-6.248 8.135-9.764 11.126-10.967h0zm0 188.487c-2.953 4.36-6.182 8.636-9.475 12.978-1.16 1.534-2.33 3.082-3.497 4.64h0-1.164a827.028 827.028 0 013.918-5.203c3.57-4.709 7.078-9.338 10.218-14.08h0zm0-554.9c-1.524 2.396-2.954 4.82-4.215 7.28-5.019 9.794-7.46 19.394-7.462 29.35.001 8.155 4.518 28.515 11.677 39.997h0v.85c-2.426-3.747-4.423-8.329-5.953-12.55-3.833-10.563-6.122-22.68-6.123-28.291.002-10.025 2.457-19.685 7.506-29.537 1.36-2.655 2.913-5.266 4.57-7.843h0zm0 388.633c-2.616-2.132-5.222-3.038-7.668-1.37-3.525 2.406-4.281 5.375-2.348 9.129 1.774 3.437 5.663 7.128 10.016 10.603h0v.863c-4.614-3.635-8.706-7.471-10.608-11.161-.735-1.426-1.108-2.783-1.108-4.034 0-2.284 1.236-4.286 3.673-5.948 2.634-1.798 5.352-1.015 8.043 1.05h0zM73 49.98c-1.558 5.022-2.339 10.025-2.342 15.113 0 4.33.757 9.417 2.342 13.611h0v1.075c-1.862-4.41-2.742-9.986-2.742-14.664.004-5.541.917-10.974 2.742-16.432h0z" fill="#F5DF4D" stroke="#F5DF4D" stroke-width="1.2" fill-rule="evenodd"/></svg>
