<svg xmlns="http://www.w3.org/2000/svg" viewBox="0 0 602 74"><path d="M281.727 1c8.685 3.813 17.238 7.858 25.68 11.852h0l2.299 1.087C347.713 31.908 379.08 51.399 404.653 73h0-1.454c-25.356-21.265-56.376-40.483-93.892-58.218h0l-2.298-1.087C297.934 9.405 288.732 5.058 279.381 1h0zm-74.39 68.063c3.055-8.484 29.559-19.747 41.369-18.945 3.924.267 4.663.55 4.78 1.21.135.786-.94 1.257-3.812 2.514-5.67 2.48-16.226 7.097-21.282 16.648-.47.89-.937 1.724-1.402 2.51h0-1.094a52.306 52.306 0 001.67-2.946c5.21-9.84 15.96-14.542 21.735-17.067h0l.511-.224c1.103-.485 2.149-.956 2.582-1.257-.42-.134-1.438-.3-3.752-.457a17.413 17.413 0 00-1.196-.039c-11.808 0-36.44 10.62-39.232 18.37-.498 1.384-.264 2.573.708 3.62h0-1.18c-.774-1.165-.922-2.5-.405-3.937zM539.45 34.244c9.96 0 32.435 8.247 61.551 26.046h0v.468c-29.142-17.847-51.619-26.114-61.551-26.114-.688 0-1.146.043-1.411.078-9.815 1.338-31.085 21.752-41.564 38.279h0-.465c10.503-16.648 32.047-37.322 41.975-38.675.276-.037.756-.082 1.465-.082zM239.425 44.423c18.787 0 31.372 5.157 31.688 7.854.042.367-.078 1.027-1.37 1.333-11.627 2.754-25.606 7.463-35.048 19.39h0-.87c9.566-12.401 23.886-17.224 35.765-20.04.339-.079.9-.263.86-.607-.251-2.155-12.56-7.263-31.025-7.263-2.106 0-4.26.065-6.405.195-8.456.513-28.433 12.35-35.624 21.112-1.743 2.122-2.572 3.91-2.4 5.177.072.52.228.984.422 1.425h0-.745a6.272 6.272 0 01-.337-1.335c-.2-1.474.656-3.389 2.545-5.69 7.273-8.86 27.515-20.834 36.098-21.355 2.157-.13 4.325-.196 6.446-.196zM505.584 1c-10.55 5.94-19.978 13.652-27.566 22.708-6.417 7.66-7.773 14.513-8.71 21.622l-.112.854-.162 1.287c-.712 5.665-1.447 11.525-4.487 18.066-1.145 2.465-3.024 4.14-4.918 5.695l-.598.488c-.522.424-1.032.85-1.529 1.28h0-1.392c.748-.704 1.542-1.36 2.333-2.005 2.007-1.633 4.083-3.322 5.258-5.85 2.977-6.41 3.705-12.196 4.408-17.79 1.007-8.028 1.958-15.61 9.195-24.246C484.617 14.378 493.626 6.88 503.696 1h0zm-194.14 69.275c6.439 0 12.584.942 18.279 2.725h0-1.348c-5.308-1.528-10.996-2.324-16.932-2.324-6.037 0-12.096.81-18.048 2.324h0-1.635c6.475-1.788 13.093-2.725 19.683-2.725zm228.004-45.5c12.98 0 35.754 9.217 61.552 24.468h0v.772c-25.828-15.312-48.62-24.572-61.552-24.572-.967 0-1.86.055-2.654.163-14.788 2.017-40.708 28.291-50.955 47.394h0-.75c10.236-19.275 36.59-46.005 51.614-48.054.825-.113 1.75-.17 2.745-.17zM215.295 1.202c2.267 0 4.724.186 7.304.55 35.684 5.058 77.422 12.806 121.247 40.92C359.001 52.395 373.82 62.269 387.601 73h0-1.091c-13.571-10.514-28.134-20.214-43.023-29.766C299.774 15.192 258.12 7.46 222.506 2.413c-2.55-.362-4.977-.546-7.211-.546-14.18 0-20.974 7.267-29.573 16.466-3.347 3.581-6.805 7.283-11.113 11.07-4.97 4.37-11.252 7.342-17.328 10.214-9.715 4.593-18.894 8.932-22.637 18.457-2.064 5.25-2.253 10.21-1.115 14.925h0-.703c-1.122-4.783-.905-9.822 1.197-15.168 3.84-9.771 13.135-14.166 22.974-18.818 6.033-2.852 12.272-5.802 17.173-10.111 4.281-3.765 7.73-7.455 11.066-11.023C193.946 8.56 200.824 1.2 215.295 1.2zm17.359 34.5c2.312 0 4.722.198 7.512.429h0l1.305.106c30.952 2.496 52.476 14.537 53.672 16.727.236.435.283.798.138 1.111-.371.815-1.922 1.152-5.012 1.823-6.222 1.351-17.802 3.869-35.172 13.563a58.405 58.405 0 00-5.533 3.54h0-.703a58.446 58.446 0 016.042-3.888c17.422-9.724 29.039-12.25 35.281-13.606 2.772-.602 4.445-.965 4.734-1.598.057-.122.103-.333-.127-.753-1.134-2.08-23.113-14.082-53.353-16.52h0l-1.306-.107c-2.78-.23-5.183-.427-7.478-.427-7.975 0-14.427 2.245-29.525 15.005-2.406 2.034-4.867 3.918-7.247 5.742-7.257 5.563-13.527 10.366-13.129 15.672.013.16.042.32.066.48h0-.404c-.022-.15-.048-.3-.06-.45-.416-5.52 5.934-10.386 13.285-16.02 2.376-1.82 4.832-3.702 7.231-5.73C218.064 37.96 224.58 35.7 232.654 35.7zM170.217 1c-1.616 2.216-1.313 3.631-.758 5.12l.122.32h0l.063.162c.555 1.42 1.182 3.028.405 5.304h0l-.525 1.543c-4.157 12.23-4.289 12.371-13.975 15.173a248.531 248.531 0 00-6.664 2.004c-6.606 2.107-9.646 5.108-12.418 8.352l-.404.476-.604.72c-2.325 2.777-4.727 5.65-9.162 7.89h0l-.206-.409-.105.431a2.765 2.765 0 00-.327-.01c-6.747 0-40.677 2.913-43.106 10.691-.618 1.978.898 4.245 4.505 6.74 4.72 3.265 8.167 3.683 10.643 3.683 1.13 0 2.168-.1 3.172-.196.902-.088 1.755-.17 2.586-.17 2.597 0 4.803.838 7.125 4.176h0-1.163c-2.188-2.887-4.085-3.243-5.962-3.243-.787 0-1.617.08-2.496.165-1.027.1-2.088.202-3.262.202-2.409 0-6.186-.4-11.174-3.85-3.981-2.754-5.618-5.373-4.866-7.784 2.795-8.95 39.194-11.347 43.998-11.347.134 0 .258 0 .37.01 4.163-2.139 6.373-4.781 8.713-7.577 3.042-3.635 6.189-7.394 13.86-9.838a245.73 245.73 0 016.687-2.012c9.312-2.693 9.312-2.693 13.35-14.577h0l.528-1.544c.666-1.954.152-3.27-.39-4.663h0l-.13-.334c-.599-1.565-1.073-3.219.44-5.608h0zM1 71.214A456.64 456.64 0 013.756 73h0-.733c-.676-.438-1.352-.882-2.023-1.313h0zm0-21.972c8.134 4.809 16.565 10.211 25.09 16.121A376.68 376.68 0 0136.687 73h0-1.112a371.487 371.487 0 00-9.865-7.088C17.315 60.09 9.013 54.765 1 50.015h0zM299.568 1c2.362 1.395 4.955 2.057 7.989 2.057 2.855 0 5.82-.585 8.69-1.153 1.73-.342 3.497-.676 5.267-.904h6.738c1.666.275 3.22.754 4.675 1.504 5.535 2.852 7.834 6.644 10.057 10.31h0l.29.478.29.475.292.472c2.448 3.918 5.287 7.467 12.762 9.216 18.54 4.34 23.61 8.862 35.86 19.79 1.563 1.393 3.24 2.89 5.076 4.501 4.442 3.898 7.695 8.31 10.84 12.579 2.756 3.741 5.609 7.61 9.25 11.117.583.559 1.161 1.075 1.735 1.558h0-1.4c-.327-.292-.653-.57-.981-.888-3.7-3.561-6.575-7.461-9.355-11.234-3.117-4.228-6.339-8.6-10.703-12.43a783.919 783.919 0 01-5.083-4.507c-12.125-10.815-17.142-15.291-35.454-19.577-8.29-1.94-11.109-5.973-13.774-10.335l-.296-.486h0l-.333-.549c-2.101-3.46-4.352-7.006-9.5-9.66-2.183-1.125-4.585-1.672-7.342-1.672-2.876 0-5.852.589-8.73 1.158-2.912.576-5.925 1.172-8.871 1.172-3.747 0-6.86-.959-9.693-2.992h0zM1 33.766C20.773 44.926 41.237 59 58.762 73h0-1.402C40.195 59.35 20.281 45.675 1 34.763h0zm220.404-18.625c2.065 0 4.303.17 6.655.503 31.54 4.47 66.419 11.94 107.71 36.135 12.109 7.096 23.337 14.09 33.657 21.221h0-.7c-10.18-7.013-21.247-13.893-33.16-20.875-41.232-24.16-76.063-31.621-107.562-36.085-2.334-.33-4.554-.498-6.6-.498-12.996 0-19.213 6.65-27.084 15.07-3.054 3.268-6.214 6.649-10.141 10.103-4.532 3.984-8.471 6.406-11.946 8.543l-.351.216c-.7.43-1.389.855-2.068 1.286l-.676.432c-4.262 2.757-8.187 5.882-12.417 12.206-2.326 3.475-3.402 6.65-3.52 9.602h0-.428c.128-3.015 1.232-6.263 3.616-9.825 5.281-7.894 10.079-10.842 15.635-14.258 3.46-2.128 7.385-4.542 11.89-8.503 3.915-3.443 7.066-6.813 10.114-10.075 7.937-8.491 14.206-15.198 27.376-15.198zm323.37 38.864c12.3 0 29.456 9.685 43.438 18.995h0-.723c-13.844-9.177-30.66-18.595-42.714-18.595-4.288 0-7.752 1.212-10.298 3.6-1.164 1.093-2.346 2.184-3.534 3.28-4.047 3.735-8.175 7.55-11.816 11.715h0-.538c3.71-4.283 7.94-8.187 12.082-12.009 1.188-1.095 2.371-2.186 3.532-3.277 2.623-2.46 6.18-3.709 10.572-3.709zm-316.88-29.344c1.823 0 3.841.143 6.168.44 20.68 2.638 42.218 8.945 65.848 19.283 5.606 2.452 12.23 5.433 18.872 8.95.73.388 1.87.883 3.185 1.457 4.461 1.943 11.202 4.879 12.075 8.022.267.959.197 1.715-.206 2.246-.425.557-1.18.84-2.251.84-1.529 0-3.264-.576-4.228-1.11-1.313-.73-2.241-2.043-3.14-3.313-1.284-1.817-2.499-3.533-4.746-3.724-2.263-.192-3.012.924-3.81 2.114-.563.838-1.147 1.707-2.27 2.15-.653.258-1.258.383-1.85.383-1.567 0-2.703-.879-3.907-1.81-1.068-.827-2.172-1.68-3.65-1.943a5.243 5.243 0 00-.897-.076c-2.436 0-5.058 1.64-7.622 3.357l-.64.43c-2.135 1.439-4.344 2.927-6.407 3.47-7.542 1.987-14.265 4.356-20.382 7.173h0-.945c6.344-2.987 13.34-5.48 21.225-7.56 1.998-.526 4.082-1.93 6.286-3.414 2.814-1.896 5.723-3.857 8.485-3.857.328 0 .654.027.967.084 1.575.28 2.718 1.164 3.825 2.02 1.147.887 2.23 1.725 3.661 1.725.541 0 1.1-.115 1.706-.354 1.007-.398 1.53-1.177 2.084-2 .824-1.23 1.666-2.51 4.176-2.29 2.253.19 3.555 1.811 4.753 3.488l.285.402c.873 1.234 1.775 2.508 3.01 3.195.948.527 2.638 1.06 4.03 1.06.645 0 1.504-.118 1.933-.682.324-.426.373-1.066.14-1.897-.822-2.96-7.457-5.85-11.85-7.763-1.323-.576-2.467-1.074-3.212-1.47-6.631-3.51-13.247-6.489-18.844-8.938-23.595-10.321-45.098-16.619-65.74-19.25-2.308-.295-4.31-.438-6.117-.438-10.06 0-17.89 4.429-33.516 18.956-3.868 3.598-7.842 6.68-11.684 9.665-8.504 6.6-15.22 11.813-15.062 18.239.01.357.046.717.098 1.079h0-.406a9.764 9.764 0 01-.091-1.068c-.163-6.63 6.624-11.897 15.216-18.566 3.835-2.978 7.802-6.057 11.658-9.642 15.711-14.61 23.605-19.063 33.787-19.063zm311.555-13.35c15.445 0 38.007 9.165 61.551 22.455h0v.996c-23.539-13.32-46.118-22.52-61.551-22.52-1.561 0-3.055.097-4.44.286C512.097 15.652 480.224 51.33 471.242 73h0-1.012c8.882-21.84 41.333-58.217 64.654-61.397a33.935 33.935 0 014.565-.293zm4.33 33.2c3.47 0 6.46.73 8.359 1.342 12.248 3.948 29.564 12.974 48.862 25.36h0v.474c-19.356-12.44-36.722-21.5-48.985-25.453-1.87-.603-4.818-1.321-8.235-1.321-5.973 0-11.255 2.119-15.701 6.298-4.626 4.348-13.501 13.054-20.167 21.789h0-.498c6.708-8.847 15.712-17.685 20.39-22.08 4.523-4.252 9.899-6.408 15.976-6.408zM1 60.292A409.235 409.235 0 0120.486 73h0-.708A409.089 409.089 0 001 60.759h0zm553.847 6.499c6.596 0 12.97 2.554 19.047 6.21h0-.79c-5.848-3.437-11.959-5.81-18.257-5.81-2.966 0-5.892.538-8.703 1.6a36.042 36.042 0 00-7.97 4.21h0-.676a36.484 36.484 0 018.506-4.584 24.928 24.928 0 018.843-1.626zM353.612 1c21.558 11.203 40.144 25.18 58.932 43.852 8.238 8.188 14.484 12.003 19.654 12.003 1.177 0 2.33-.206 3.422-.615 5.471-2.04 9.567-9.13 14.309-17.338 2.49-4.308 5.312-9.192 8.654-13.903A125.442 125.442 0 01480.87 1h1.053a124.707 124.707 0 00-22.795 24.384c-3.326 4.687-6.138 9.556-8.622 13.852-4.807 8.32-8.958 15.504-14.652 17.63a10.46 10.46 0 01-3.656.656c-5.357 0-11.75-3.876-20.123-12.196C393.008 26.376 374.148 12.272 352.163 1h0zM155.283 1a265.476 265.476 0 01-8.181 6.144C116.1 29.566 90.05 40.009 65.127 40.009h0c-14.198 0-28.27-3.523-41.827-10.467-8.197-4.2-15.416-9.27-22.3-14.406h0V13.97c7.02 5.254 14.372 10.46 22.726 14.74 13.425 6.878 27.352 10.365 41.399 10.366 24.719 0 50.594-10.387 81.43-32.69A264.663 264.663 0 00153.757 1h0zm221.298 0c4.901 5.827 13.892 11.818 19.618 15.632 1.624 1.081 3.028 2.016 3.952 2.695 10.146 7.443 18.526 12.401 26.444 12.401 1.074 0 2.144-.095 3.181-.28 6.292-1.131 12.025-5.607 18.043-14.086A138.82 138.82 0 01461.457 1h.554a138.538 138.538 0 00-13.865 16.592c-6.083 8.572-11.898 13.1-18.299 14.248a18.3 18.3 0 01-3.252.288c-8.028 0-16.471-4.989-26.682-12.48-.916-.671-2.316-1.605-3.937-2.684-5.82-3.876-14.983-9.984-19.891-15.964h0zM5.715 1c7.555 5.72 15.38 11.532 24.029 15.963 10.037 5.142 18.55 7.537 26.794 7.537 8.632 0 16.36-2.61 25.305-5.632 5.12-1.73 10.921-3.69 17.51-5.344 3.399-.853 6.357-.952 8.284-.952 1.285 0 2.513.05 3.7.098 1.11.045 2.16.087 3.19.087 5.198-.001 9.333-1.233 13.876-7.37A35.4 35.4 0 00131.194 1h.748a35.265 35.265 0 01-3.004 4.784c-4.71 6.36-9.006 7.64-14.41 7.64-1.046 0-2.102-.043-3.219-.087a89.111 89.111 0 00-3.672-.097c-1.892 0-4.794.097-8.123.93-6.561 1.647-12.351 3.603-17.456 5.329-9.004 3.042-16.778 5.669-25.52 5.669-8.354 0-16.964-2.42-27.098-7.612C20.47 12.96 12.405 6.906 4.611 1h0zm389.18 0c1.215 2.873 4.673 6.323 10.777 10.8 7.671 5.629 13.964 8.365 19.236 8.365.47 0 .944-.02 1.405-.065 7.617-.708 12.794-7.085 19.347-15.157a375.159 375.159 0 013.243-3.944h.52a364.406 364.406 0 00-3.453 4.196c-6.61 8.145-11.834 14.58-19.621 15.304-.473.044-.959.066-1.441.066-5.36 0-11.732-2.762-19.473-8.44-6.248-4.587-9.764-8.135-10.967-11.126h0zm188.487 0c4.36 2.953 8.636 6.182 12.978 9.475 1.534 1.16 3.082 2.33 4.64 3.497h0v1.164a827.028 827.028 0 01-5.203-3.918C591.088 7.648 586.46 4.14 581.717 1h0zm-554.9 0c2.396 1.524 4.82 2.954 7.28 4.215 9.794 5.019 19.394 7.46 29.35 7.462C73.267 12.676 93.627 8.159 105.109 1h.85c-3.747 2.426-8.329 4.423-12.55 5.953-10.563 3.833-22.68 6.122-28.291 6.123-10.025-.002-19.685-2.457-29.537-7.506-2.655-1.36-5.266-2.913-7.843-4.57h0zm388.633 0c-2.132 2.616-3.038 5.222-1.37 7.668 2.406 3.525 5.375 4.281 9.129 2.348C428.31 9.242 432.002 5.353 435.477 1h.863c-3.635 4.614-7.471 8.706-11.161 10.608-1.426.735-2.783 1.108-4.034 1.108-2.284 0-4.286-1.236-5.948-3.673-1.798-2.634-1.015-5.352 1.05-8.043h0zM49.98 1c5.022 1.558 10.025 2.339 15.113 2.342 4.33 0 9.417-.757 13.611-2.342h1.075c-4.41 1.862-9.986 2.742-14.664 2.742C59.575 3.738 54.142 2.825 48.684 1h0z" fill="#C9E265" stroke="#C9E265" stroke-width="1.2" fill-rule="evenodd"/></svg>
